<svg xmlns="http://www.w3.org/2000/svg" xml:space="preserve" width="800" height="800" viewBox="0 0 512 512"><path d="m500.468 104.004-92.472-92.472A39.46 39.46 0 0 0 378.616.03a39.48 39.48 0 0 0-28.391 13.764l-94.181 110.215c-13.262 15.519-12.343 38.982 2.091 53.417l26.571 26.571-109.207 109.206-27.218-27.218L0 434.268 77.733 512l148.282-148.282-27.219-27.218 109.206-109.206 26.571 26.571c7.609 7.61 17.727 11.463 27.869 11.463 9.096 0 18.211-3.101 25.548-9.371l110.216-94.182a39.5 39.5 0 0 0 13.764-28.391 39.48 39.48 0 0 0-11.502-29.38m-210.503 58.659-8.531-8.531c-2.357-2.357-2.507-6.186-.342-8.719l94.181-110.215c1.588-1.859 3.585-2.206 4.634-2.247q.116-.004.247-.004c1.097 0 2.946.281 4.548 1.882l13.639 13.639zm36.068 36.069-12.764-12.764L421.644 71.772l18.584 18.584zm153.016-66.638c-.041 1.048-.387 3.045-2.246 4.634L366.588 230.91c-2.532 2.164-6.361 2.015-8.717-.342l-8.531-8.531 114.195-108.376 13.639 13.639c1.727 1.728 1.916 3.745 1.875 4.794"/></svg>