<svg xmlns="http://www.w3.org/2000/svg" xml:space="preserve" width="800" height="800" viewBox="0 0 56.292 56.292"><circle cx="28.525" cy="5.053" r="5.053" style="fill:#010002"/><path d="M42.216 21.158c-3.771-2.396-6.955-5.649-10.717-8.062a5.1 5.1 0 0 0-3.265-1.172c-.079 0-.154.008-.232.012a2.6 2.6 0 0 0-.712.03c-4.959.936-8.332 5.053-12.707 7.218-2.804 1.388-.346 5.571 2.448 4.188 2.146-1.062 4.061-2.708 6.073-4.126v8.899c-1.79-.519-3.605-.623-5.407.161-1.998.87-2.513 4.506-2.951 6.321-.706 2.915-.875 5.952-1.676 8.831-1.05 3.772 4.801 5.373 5.847 1.61 1.018-3.656 1.25-7.465 2.297-11.135.703.207 1.386.512 2.042.808 1.355.612 2.653 1.349 3.992 1.991v16.627c0 3.91 6.063 3.91 6.063 0V31.111c.033-.231.055-.467.055-.707v-9.885c2.09 1.668 4.141 3.39 6.402 4.828 2.647 1.685 5.079-2.515 2.448-4.189" style="fill:#010002"/></svg>