<svg xmlns="http://www.w3.org/2000/svg" xml:space="preserve" width="800" height="800" viewBox="0 0 64 64"><g fill="#231f20"><path d="M47.231 20.893A16 16 0 0 0 48 16c0-8.836-7.163-16-16-16S16 7.164 16 16c0 1.707.273 3.35.769 4.893C10.505 23.062 6 28.998 6 36c0 8.836 7.163 16 16 16 3.465 0 6.661-1.117 9.28-2.99L23.27 41H19a1 1 0 1 1 0-2h4v-4a1 1 0 1 1 2 0v4.901l6 5.997V33.416l-3.7-3.7c-.391-.391-.348-.98.044-1.372.391-.391.934-.48 1.324-.09L32 31.586l3.29-3.29c.391-.391 1.038-.405 1.429-.015s.39 1.024-.001 1.415L33 33.414v12.485l6-6.001V35a1 1 0 1 1 2 0v4h4a1 1 0 1 1 0 2h-4.27l-8.01 8.01A15.9 15.9 0 0 0 42 52c8.837 0 16-7.164 16-16 0-7.002-4.505-12.938-10.769-15.107"/><path d="M28 52.961V63a1 1 0 0 0 1 1h6a1 1 0 0 0 1-1V52.961a18 18 0 0 1-4-1.996 18 18 0 0 1-4 1.996"/></g></svg>