<svg xmlns="http://www.w3.org/2000/svg" xml:space="preserve" width="800" height="800" viewBox="0 0 207.982 207.982"><path d="M150.348 143.036c-14.485-.002-27.802-4.789-37.499-13.479-10.38-9.303-16.097-22.685-16.097-37.679 0-9.854 2.191-19.692 6.335-28.451l.026-.054.026-.054 9.032-18.511-18.3-37.51c-4.748-9.731-18.616-9.731-23.364 0l-48.084 98.545c-5.562 11.754-8.402 24.816-8.402 37.792 0 40.243 30.52 64.346 68.167 64.346s68.167-24.103 68.167-64.346c.001-.199-.005-.399-.007-.599m-96.912-33.581c-.154.204-15.334 20.717-11.938 48.308a5 5 0 0 1-4.969 5.611 5 5 0 0 1-4.957-4.39c-3.907-31.752 13.17-54.618 13.899-55.576a5.001 5.001 0 0 1 7.965 6.047m135.15-41.752L157.829 4.668c-3.037-6.224-11.907-6.224-14.945 0l-25.148 51.54-5.609 11.495a55 55 0 0 0-1.936 4.694 56 56 0 0 0-1.328 4.071 57.4 57.4 0 0 0-2.11 15.41q0 1.203.057 2.376c.009.191.03.376.041.567.035.585.071 1.17.126 1.743.028.292.072.575.105.864.054.463.103.93.17 1.385.048.323.111.637.166.956.07.41.134.825.215 1.229.068.341.152.671.228 1.007.084.372.161.748.255 1.114.09.355.196.699.295 1.048.095.336.183.676.286 1.006.114.365.243.719.366 1.078.104.304.202.613.313.912.138.372.291.733.439 1.098.111.274.216.554.333.824.165.382.345.752.522 1.126.114.242.222.489.34.727.192.385.399.76.603 1.136.117.216.228.437.349.651.219.387.453.762.685 1.138.118.192.23.388.351.578.249.389.512.765.774 1.143.116.167.226.338.344.503.279.389.572.765.866 1.142.112.143.218.291.332.433.312.388.636.763.962 1.138.105.121.206.245.312.365.344.385.701.758 1.06 1.128.097.1.19.203.288.302.376.379.765.745 1.157 1.108.089.082.174.168.264.249q.615.555 1.255 1.083l.234.199q.669.544 1.362 1.06.095.074.191.146.715.525 1.455 1.019l.165.114q.763.505 1.551.976l.127.079q.812.482 1.651.93l.086.047a42 42 0 0 0 1.794.9 45 45 0 0 0 1.821.811l.027.012c5.634 2.353 11.954 3.621 18.641 3.698h.006c.214.002.425.013.639.013 24.082 0 43.604-15.417 43.604-41.159-.006-8.304-1.822-16.659-5.38-24.177m-50.879 3.394c-.123.165-9.361 12.75-7.288 29.597a5 5 0 0 1-4.969 5.611 5 5 0 0 1-4.957-4.39c-2.588-21.03 8.762-36.224 9.246-36.86a5 5 0 0 1 7.968 6.042"/></svg>